<svg width="233" height="239" viewBox="0 0 233 239" fill="none" xmlns="http://www.w3.org/2000/svg">
<ellipse cx="116.5" cy="119.5" rx="116.5" ry="119.5" fill="url(#paint0_linear_503_4)"/>
<path d="M136.65 101.75C136.65 92.95 134.35 86.95 129.75 83.75C125.25 80.45 118.9 78.8 110.7 78.8H105.75C104.75 78.8 103.5 78.9 102 79.1C100.6 79.2 99.3 79.55 98.1 80.15C97 80.65 96.45 81.6 96.45 83V124.7C97.55 125.1 98.8 125.35 100.2 125.45C101.6 125.55 102.9 125.6 104.1 125.6C108.1 125.6 112 125.25 115.8 124.55C119.7 123.85 123.2 122.65 126.3 120.95C129.5 119.25 132 116.85 133.8 113.75C135.7 110.65 136.65 106.65 136.65 101.75ZM169.5 182.6C169.5 183.3 168.8 183.85 167.4 184.25C166 184.65 164.35 184.9 162.45 185C160.55 185.2 158.75 185.3 157.05 185.3C155.45 185.3 154.35 185.3 153.75 185.3C149.75 185.3 146.55 184.9 144.15 184.1C141.75 183.2 139.4 180.95 137.1 177.35C132.2 169.45 127.45 161.45 122.85 153.35C118.35 145.25 113.85 137.1 109.35 128.9L96.45 129.35V176.9C96.45 178.4 97.05 179.4 98.25 179.9C99.45 180.4 100.65 180.65 101.85 180.65C103.25 180.65 104.6 180.6 105.9 180.5C107.2 180.4 108.5 180.35 109.8 180.35C110.5 180.35 110.9 180.65 111 181.25C111.2 181.85 111.3 182.4 111.3 182.9C111.3 183.7 111.05 184.25 110.55 184.55C110.15 184.75 109.6 184.85 108.9 184.85C104.5 184.85 100.05 184.8 95.55 184.7C91.05 184.5 86.6 184.4 82.2 184.4C79.8 184.4 77.4 184.5 75 184.7C72.7 184.8 70.35 184.85 67.95 184.85C67.35 184.85 66.95 184.6 66.75 184.1C66.65 183.5 66.6 183 66.6 182.6C66.6 181.3 67.15 180.65 68.25 180.65C69.15 180.65 70 180.7 70.8 180.8C71.7 180.8 72.55 180.8 73.35 180.8C74.85 180.8 76.45 180.65 78.15 180.35C79.95 179.95 80.95 178.8 81.15 176.9C81.35 174.4 81.4 171.5 81.3 168.2C81.3 164.8 81.3 161.85 81.3 159.35C81.3 156.05 81.3 152.75 81.3 149.45C81.3 146.05 81.3 142.7 81.3 139.4C81.3 132.5 81.3 125.6 81.3 118.7C81.4 111.8 81.45 104.9 81.45 98C81.45 95.5 81.45 93 81.45 90.5C81.45 87.9 81.35 85.4 81.15 83C80.95 81 79.9 79.9 78 79.7C76.2 79.4 74.55 79.25 73.05 79.25C72.45 79.25 71.85 79.3 71.25 79.4C70.65 79.4 70.05 79.4 69.45 79.4C67.95 79.4 67.2 78.55 67.2 76.85C67.2 75.75 67.7 75.2 68.7 75.2C72.1 75.2 75.45 75.3 78.75 75.5C82.15 75.7 85.55 75.8 88.95 75.8C93.65 75.8 98.3 75.6 102.9 75.2C107.5 74.8 112.1 74.6 116.7 74.6C120.5 74.6 124.5 75 128.7 75.8C133 76.6 137 77.9 140.7 79.7C144.4 81.5 147.4 84 149.7 87.2C152.1 90.3 153.3 94.25 153.3 99.05C153.3 105.05 151.6 110.25 148.2 114.65C144.9 118.95 140.6 122.3 135.3 124.7C133.4 125.6 131.45 126.3 129.45 126.8C127.45 127.2 125.45 127.6 123.45 128C128.05 135.8 132.85 143.5 137.85 151.1C142.95 158.7 148.1 166.2 153.3 173.6C154.8 175.7 156.35 177.4 157.95 178.7C159.65 179.9 161.75 180.75 164.25 181.25C164.85 181.35 165.85 181.4 167.25 181.4C168.75 181.4 169.5 181.8 169.5 182.6Z" fill="white"/>
<defs>
<linearGradient id="paint0_linear_503_4" x1="116.5" y1="0" x2="116.5" y2="239" gradientUnits="userSpaceOnUse">
<stop stop-color="#D00A22"/>
<stop offset="1" stop-color="#810000" stop-opacity="0.9"/>
</linearGradient>
</defs>
</svg>
